<svg viewBox="0 0 200.1 135.1" xmlns="http://www.w3.org/2000/svg" xmlns:xlink="http://www.w3.org/1999/xlink" id="e1TKDdytjug1" overflow="hidden"><g><g transform="matrix(0.468489 0 0 0.468489 600.208 50)"><path d="M-1105.5 90.6-1105.5 100.6C-1111.4 94.2-1119.6 90.6-1128.3 90.6-1145.5 90.6-1159.5 104.6-1159.5 121.8-1159.5 139-1145.5 153-1128.3 153-1119.6 153-1111.4 149.4-1105.5 143L-1105.5 153-1097.2 153-1097.2 90.6-1105.5 90.6ZM-1105.5 121.7C-1105.5 134.3-1115.8 144.5-1128.3 144.5-1140.8 144.5-1151.1 134.2-1151.1 121.7-1151.1 109.2-1140.8 98.9-1128.3 98.9-1115.8 98.9-1105.5 109.1-1105.5 121.7"/></g><g transform="matrix(0.468489 0 0 0.468489 738.609 50)"><path d="M-1187.4 90.6-1187.4 100.6C-1193.3 94.2-1201.5 90.6-1210.2 90.6-1227.4 90.6-1241.4 104.6-1241.4 121.8-1241.4 139-1227.4 153-1210.2 153-1201.5 153-1193.3 149.4-1187.4 143L-1187.4 153-1179.1 153-1179.1 90.6-1187.4 90.6ZM-1210.2 144.6C-1222.8 144.6-1233 134.3-1233 121.8-1233 109.3-1222.7 99-1210.2 99-1197.6 99-1187.4 109.3-1187.4 121.8-1187.4 134.3-1197.6 144.6-1210.2 144.6"/></g><g transform="matrix(0.468489 0 0 0.468489 679.073 50)"><path d="M-1152.1 90.6-1183.3 90.6-1183.3 152.9-1152.1 152.9C-1134.9 152.9-1120.9 138.9-1120.9 121.7-1121 104.5-1135 90.6-1152.1 90.6M-1152.1 144.6-1174.9 144.6-1174.9 98.9-1152.1 98.9C-1139.5 98.9-1129.3 109.2-1129.3 121.7-1129.3 134.2-1139.6 144.6-1152.1 144.6"/></g><g transform="matrix(0.468489 0 0 0.468489 554.309 49.9995)"><path d="M-1078.4 90.6-1078.4 144.6-1097.6 144.6-1097.6 90.6-1105.9 90.6-1105.9 152.9-1070 152.9-1070 90.6-1078.4 90.6Z"/></g><g transform="matrix(0.468489 0 0 0.468489 517.164 30.113)"><path d="M-1056.4 163.7-1056.4 172-1050.4 172C-1053.7 181-1062.2 187-1071.9 187-1084.5 187-1094.7 176.7-1094.7 164.2-1094.7 151.6-1084.4 141.4-1071.9 141.4-1062.1 141.4-1053.4 147.7-1050.2 157L-1050.1 157.3-1041.5 157.3-1041.7 156.7C-1045.1 142.8-1057.6 133-1071.9 133-1089.1 133-1103.1 147-1103.1 164.2-1103.1 181.4-1089.1 195.4-1071.9 195.4-1057.7 195.4-1045.3 185.9-1041.7 172.1L-1035.2 172.1-1035.2 163.8-1056.4 163.7-1056.4 163.7Z"/></g><g transform="matrix(0.468489 0 0 0.468489 636.189 30.477)"><path d="M-1126.8 162.4-1126.8 132.3-1162.6 132.3-1162.6 194.6-1154.3 194.6-1154.3 168.3-1132.7 168.3-1106.4 194.6-1094.6 194.6-1126.8 162.4ZM-1135.1 159.9-1154.3 159.9-1154.3 140.5-1135.1 140.5-1135.1 159.9Z"/></g></g><g><g transform="matrix(0.468489 0 0 0.468489 397.322 50)"><path d="M-527.2 5.9C-544.4 5.9-558.4 19.9-558.4 37.1-558.4 54.3-544.4 68.3-527.2 68.3-510 68.3-496 54.3-496 37.1-496 19.9-510 5.9-527.2 5.9M-504.4 37.1C-504.4 49.7-514.7 59.9-527.2 59.9-539.7 59.9-550 49.6-550 37.1-550 24.6-539.7 14.3-527.2 14.3-514.6 14.2-504.4 24.5-504.4 37.1"/></g><g transform="matrix(0.468489 0 0 0.468489 323.435 49.9995)"><path d="M-483.5 5.9-483.5 59.9-497.6 59.9-497.6 23.8C-497.6 13.9-505.6 5.9-515.5 5.9-525.4 5.9-533.4 13.9-533.4 23.8L-533.4 68.2-525.1 68.2-525.1 23.8C-525.1 18.5-520.8 14.2-515.5 14.2-510.2 14.2-505.9 18.5-505.9 23.8L-505.9 68.2-475.1 68.2-475.1 5.9-483.5 5.9Z"/></g><g transform="matrix(0.468489 0 0 0.468489 284.252 44.6056)"><path d="M-460.3 25.7-460.3 17.4-492.5 17.4-492.5 79.7-460.3 79.7-460.3 71.4-484.1 71.4-484.1 25.7-460.3 25.7Z"/></g><g transform="matrix(0.468489 0 0 0.468489 372.961 44.6056)"><path d="M-512.8 25.7-512.8 17.4-545 17.4-545 79.7-512.8 79.7-512.8 71.4-536.6 71.4-536.6 25.7-512.8 25.7Z"/></g><g transform="matrix(0.468489 0 0 0.468489 190 49.9995)"><path d="M-404.6 5.9-404.6 14.2-389.8 14.2-389.8 68.2-381.5 68.2-381.5 14.2-366.6 14.2-366.6 5.9-404.6 5.9Z"/></g><g transform="matrix(0.468489 0 0 0.468489 -77.7364 -213.547)"><rect x="394.9" y="568.5" width="8.3" height="62.3"/></g><g transform="matrix(0.468489 0 0 0.468489 251.162 49.9995)"><path d="M-440.8-8.9-464.4-5.1-464.4-0.6-440.8-0.6-440.8-8.9ZM-463.3 5.9C-480.5 5.9-494.5 19.9-494.5 37.1-494.5 54.3-480.5 68.3-463.3 68.3-448.9 68.3-436.5 58.5-433.1 44.6L-432.9 44-441.5 44-441.6 44.3C-444.7 53.6-453.4 59.9-463.3 59.9-475.7 59.9-485.9 49.9-486.1 37.6L-432.6 37.6-432.1 37.6-432.1 37C-432.2 19.9-446.2 5.9-463.3 5.9M-484.7 29.2C-481.4 20.2-472.9 14.2-463.2 14.2-453.6 14.2-445.1 20.2-441.7 29.2L-484.7 29.2Z"/></g></g><g><g transform="matrix(0.468489 0 0 0.468489 59.7635 50)"><path d="M-34.4-78C-51.6-78-65.6-64-65.6-46.8-65.6-29.6-51.6-15.6-34.4-15.6-17.2-15.6-3.2-29.6-3.2-46.8-3.2-64-17.2-78-34.4-78M-11.5-46.8C-11.5-34.2-21.8-24-34.3-24-46.8-24-57.1-34.3-57.1-46.8-57.1-59.3-46.8-69.6-34.3-69.6-21.8-69.6-11.5-59.4-11.5-46.8"/></g><g transform="matrix(0.468489 0 0 0.468489 107.106 9.61579)"><path d="M-62.4 70.6-62.4 62.3-86.2 62.3-86.2 8.3-94.5 8.3-94.5 70.6-62.4 70.6Z"/></g><g transform="matrix(0.468489 0 0 0.468489 -77.6115 -213.547)"><rect x="343.9" y="484.6" width="8.3" height="62.3"/></g><g transform="matrix(0.468489 0 0 0.468489 24.4856 50)"><path d="M-13.5-77.9-51.3-77.9-51.3-15.6-43-15.6-43-33-43-33-43-42.1-13.6-42.1C-3.7-42.1 4.3-50.1 4.3-60 4.5-69.9-3.6-77.9-13.5-77.9M-13.5-50.4-42.9-50.4-42.9-69.6-13.5-69.6C-8.2-69.6-3.9-65.3-3.9-60-3.9-54.7-8.2-50.4-13.5-50.4"/></g></g></svg>